<?xml version="1.0" encoding="UTF-8"?>
<svg xmlns="http://www.w3.org/2000/svg" version="1.1" viewBox="0 0 366.29 286.01">
  <!-- Generator: Adobe Illustrator 29.3.1, SVG Export Plug-In . SVG Version: 2.1.0 Build 151)  -->
  <defs>
    <style>
      .st0 {
        display: none;
      }

      .st1, .st2 {
        fill: #1d1d1b;
        stroke: #1d1d1b;
        stroke-miterlimit: 10;
      }

      .st2 {
        font-family: Broadway, Broadway;
        font-size: 27.04px;
      }
    </style>
  </defs>
  <g id="Capa_1">
    <g class="st0">
      <path class="st1" d="M-54.99,362.34c-.05,1.21-.08,2.69-.08,4.43v2.37l.28,27.29,13.41-.14,9.49-.1c1.56,0,2.33.47,2.33,1.4,0,.78-.4,1.22-1.19,1.33-.18.03-1.28.05-3.28.08h-44.93l.04-2.06.04-13.21.16-14.16-.32-24.56h41.92c1.87,0,2.94.04,3.2.12.61.16.91.6.91,1.33,0,.91-.58,1.37-1.74,1.37h-.28l-19.81-.24-.16,12.26,4.31.04,13.84-.24,3.04-.04c1.11,0,1.84.09,2.2.28.36.19.53.56.53,1.12,0,1.04-.87,1.56-2.61,1.56l-3.12-.1-18.19-.14Z"/>
      <path class="st1" d="M29.03,362.22c3.43-2.64,6.62-4.54,9.59-5.71,2.97-1.17,6.1-1.76,9.39-1.76,6.04,0,10.24,1.94,12.62,5.81.68,1.16,1.16,2.5,1.42,4.01.26,1.52.39,3.76.39,6.74l-.16,10.44v2.45l.24,13.17.04,1.62h-20.33l.16-12.5.2-12.58-.04-5.1c-.03-1.87-.03-2.97,0-3.28.03-2.08-.2-3.52-.67-4.31s-1.33-1.19-2.57-1.19c-1.32,0-2.76.38-4.33,1.15-1.57.77-3.26,1.92-5.08,3.48.13,1.03.2,2.51.2,4.43l-.08,9.89-.08,11.11c0,3.27.07,6.24.2,8.9H9.85l.09-8.62.14-18.59c0-6.12-.08-9.49-.24-10.12-.29-1.13-1.24-1.7-2.85-1.7-1.21,0-2.58.38-4.09,1.13-1.52.75-3.2,1.89-5.04,3.42l-.16,16.73.2,17.76h-20.29v-1.58l.08-7.2.04-9.81.04-9.49-.16-15.11H-2.14v5.54c2.95-2.21,5.9-3.87,8.84-4.96,2.94-1.09,5.87-1.64,8.8-1.64,4.4,0,7.95,1.11,10.64,3.32,1.08.87,2.04,2.25,2.89,4.15Z"/>
      <path class="st1" d="M93.99,355.81v1.15l-.08,6.17-.08,9.57-.12,14.55.16,8.19.08,3.56h-20.33l.2-14.55.12-12.85-.08-6.76-.12-7.51.04-1.5h20.21ZM83.75,341.97c6.96,0,10.44,1.82,10.44,5.46,0,1.77-.92,3.14-2.75,4.13-1.83.99-4.41,1.48-7.73,1.48-6.62,0-9.93-1.87-9.93-5.62s3.32-5.4,9.97-5.46Z"/>
      <path class="st1" d="M123.77,406.6h40.78v7.91h-40.78v-7.91Z"/>
      <path class="st1" d="M248.92,343.16l8.61,29.47,3.91,13.05,3.52,11.83.47,1.5h-24.04l-7.57-27.96-16.34,24.56-16.76-23.34c-1.62,5.7-3.38,12.69-5.29,20.97-.69,3.17-1.19,5.04-1.49,5.64-.3.59-.92.89-1.84.89-1.16,0-1.74-.4-1.74-1.19,0-.24.37-1.57,1.11-4l2.46-8.42,4.28-14.55,8.36-28.44,21.65,31.39,20.7-31.39Z"/>
      <path class="st1" d="M325.29,355.81l-.12,31.09.12,12.1h-20.25v-5.58c-3.34,2.29-6.39,3.94-9.14,4.94-2.75,1-5.63,1.5-8.63,1.5-5.5,0-9.49-1.63-11.97-4.9-.92-1.21-1.56-2.59-1.92-4.13-.36-1.54-.53-3.74-.53-6.58l.08-9.25.04-6.17-.2-13.01h20.25l-.24,19.85.04,7.51.04,5.06c0,3.03.18,4.85.55,5.46.45.69,1.29,1.03,2.53,1.03s2.58-.33,3.94-.99c1.36-.66,3.12-1.83,5.28-3.52l.04-5.18.08-14.12-.24-13.88v-1.23h20.25Z"/>
      <path class="st1" d="M336.19,391.69c.53,0,1.2.4,2.02,1.19,1.32,1.25,3.19,2.32,5.62,3.21,2.42.89,4.69,1.33,6.8,1.33.97,0,1.71-.17,2.19-.5s.73-.82.73-1.45-.34-1.4-1.01-2.29c-.67-.89-2.17-2.59-4.49-5.09-5.67-6.07-9.34-10.33-11.02-12.8-1.67-2.46-2.51-4.83-2.51-7.1,0-1.98.57-3.87,1.72-5.67,1.15-1.81,2.75-3.34,4.8-4.61,3.4-2.11,7.3-3.16,11.71-3.16,3.24,0,6.67.69,10.28,2.06,2.82,1.08,4.23,2.25,4.23,3.52,0,.4-.17.75-.49,1.07-.33.32-.71.47-1.13.47-.5,0-1.44-.49-2.81-1.46-2.79-2-5.84-3.01-9.14-3.01-1.16,0-2.04.18-2.63.55-.59.37-.89.94-.89,1.7,0,.9.55,2.03,1.64,3.4,1.09,1.37,3.32,3.69,6.66,6.96,3.27,3.19,5.35,5.28,6.23,6.27.88.99,1.73,2.13,2.55,3.42,1.4,2.21,2.1,4.61,2.1,7.2,0,4.06-1.96,7.34-5.89,9.85-3.22,2.08-7.17,3.12-11.87,3.12-5.22,0-9.85-1.16-13.88-3.48-1.19-.71-2-1.29-2.43-1.74-.44-.45-.65-.94-.65-1.46,0-.98.51-1.48,1.54-1.5Z"/>
      <path class="st1" d="M398.65,355.81v1.15l-.08,6.17-.08,9.57-.12,14.55.16,8.19.08,3.56h-20.33l.2-14.55.12-12.85-.08-6.76-.12-7.51.04-1.5h20.21ZM388.41,341.97c6.96,0,10.44,1.82,10.44,5.46,0,1.77-.92,3.14-2.75,4.13-1.83.99-4.41,1.48-7.73,1.48-6.62,0-9.93-1.87-9.93-5.62s3.32-5.4,9.97-5.46Z"/>
      <path class="st1" d="M429.05,364.4v26.42l-.04,2.53c0,1.63.2,2.72.61,3.26.41.54,1.23.81,2.47.81,3.11,0,6.17-.96,9.18-2.87,3.01-1.91,5.46-4.48,7.36-7.69.58-.98,1.15-1.46,1.7-1.46.4,0,.76.18,1.09.53.33.36.49.73.49,1.13,0,.95-.76,2.29-2.29,4.01-1.53,1.73-3.31,3.28-5.34,4.65-4.14,2.77-8.57,4.15-13.29,4.15-6.46,0-11.8-2-16.02-6.01-4.8-4.51-7.2-10.03-7.2-16.57s2.53-12.37,7.59-16.85c4.25-3.8,9.48-5.7,15.7-5.7,4.96,0,9.29,1.17,13.01,3.52,1.58,1,2.87,2.08,3.88,3.22,1,1.15,1.5,2.12,1.5,2.91,0,.4-.15.73-.43,1.01-.29.28-.65.42-1.07.42-.55,0-1.25-.63-2.1-1.9-1.21-1.77-3.12-3.3-5.74-4.61-2.61-1.3-5.08-1.96-7.4-1.96-1.56,0-2.56.43-3.01,1.3-.45.87-.67,2.78-.67,5.74Z"/>
    </g>
    <g>
      <path class="st1" d="M319.43,146.62c-6.21-39.61-30.65-74.91-64.83-95.46C193.07,14.18,113.55,30.92,71.97,88.9c-12.08,16.84-20.88,37.14-23.68,57.72,3.07.57,6.06-.21,9.16.01,7.43.53,13.1,5.27,14.59,12.64l.08,93.69c-2.38,12.35-12.66,13.57-23.54,12.55-6.41-.6-10.38-4.15-12.8-9.98l-.28-114.21c4.8-52.79,37.51-99.55,85.39-121.86,91.85-42.78,198.54,16.91,210.23,116.87,4.37,37.4-1,78.79,1.13,116.72-1.21,7.17-6.41,11.89-13.62,12.49-10.55.87-20.29-.06-23.09-11.95l.05-95.55c1.55-3.72,3.76-7.8,7.62-9.6,4.55-2.13,11.19-1.11,16.24-1.82Z"/>
      <path class="st1" d="M17.59,161.76c3.69-.63,9.9-.92,10.16,4.02v81.16c-.15,4.74-7.28,4.02-10.8,3.54-5.73-.78-10.23-6.54-11.45-11.88l.06-64.42c.75-5.92,6.22-11.42,12.03-12.42Z"/>
      <path class="st1" d="M357.58,247c-3.41,3.15-9.52,4.13-13.99,3.8-2-.15-3.24-1.39-3.56-3.36l-.05-81.11c-.6-7.03,10.18-5.07,14.22-3.06,5.8,2.89,7.62,8.05,8.05,14.17,1.42,20.23-.54,42.89-.73,63.21-.37,1.29-2.95,5.45-3.93,6.35Z"/>
      <path class="st1" d="M187.6,279.27c-2.87,2.81-8.91.76-9.32-3.43l.45-140.73c2.53-4.45,8.79-3.92,10.43.95l.3,138.68c.07,1.04-1.2,3.89-1.86,4.53Z"/>
      <path class="st1" d="M150.91,156.24c.81.91,1.3,2.72,1.31,3.97l-.45,94.62c-2.81,4.66-7.47,4.66-10.27,0l-.43-95.16c.18-5.12,6.6-7.08,9.84-3.43Z"/>
      <path class="st1" d="M219.85,154.51c4.15-.6,6.35,2.54,6.84,6.25l-.46,93.51c-1.93,5.02-7.86,5.4-10.38.68l-.31-95.26c.15-2.64,1.59-4.78,4.31-5.17Z"/>
      <path class="st1" d="M163.17,169.55c4.46-1.14,6.98,1.42,7.39,5.66,1.93,19.99-1.51,43.06-.02,63.38-.72,6.12-9.29,6.34-10.86.28.55-19.59-1.63-40.86-.28-60.32.2-2.92.42-8.15,3.77-9Z"/>
      <path class="st1" d="M206.49,170.67c.82.82,1.19,2.81,1.3,3.98,1.84,20.29-1.45,43.35-.02,63.94-.77,6.52-10.23,6.41-11.14-1.11-1.45-12.05,1.98-27.04.59-39.49-.33-7.07-1.44-16.36-.6-23.32.59-4.91,6.59-7.27,9.86-4Z"/>
      <path class="st1" d="M132.02,230.91c-4.04,3.65-9.14.13-9.78-4.6-1.64-12.1,1.14-27.51-.06-39.97.8-6.66,8.24-8.21,11.11-2.2l.03,43.34c-.1.9-.67,2.86-1.3,3.43Z"/>
      <path class="st1" d="M235.71,230.9c-.67-.61-1.22-1.92-1.31-2.86l.06-43.88c.84-5.21,9.55-5.04,10.49,1.11-1.02,13.18,1.5,28.74.04,41.64-.55,4.81-5.74,7.22-9.27,3.99Z"/>
      <path class="st1" d="M105.71,219.78c-1.02-1.01-1.7-3.09-1.86-4.53-.43-3.77-.52-15.25.04-18.86.99-6.43,10.01-6.24,11.05-.56.53,2.91.46,17.43,0,20.5-.65,4.26-6.13,6.5-9.22,3.46Z"/>
      <path class="st1" d="M256.49,191.75c4.42-1,6.95,2.2,7.38,6.27.4,3.74.47,14.08-.14,17.65-1.08,6.43-8.89,7.29-10.67,2.05-.64-1.89-.68-19.32-.27-21.89.27-1.74,1.98-3.69,3.7-4.08Z"/>
      <path class="st1" d="M274.27,195.64c2.46-.72,5.79-.29,7.06,2.15s1.27,12.85.64,15.55c-1.16,4.93-9.22,5.39-10.28.2-.74-3.62-1.89-16.59,2.58-17.9Z"/>
      <path class="st1" d="M91.37,195.24c1.91.09,4.15,1.49,4.59,3.45.47,2.1.45,12.04.14,14.35-.72,5.31-8.32,5.81-10.16,1.22-.87-2.16-.88-14.34,0-16.38.8-1.88,3.56-2.73,5.43-2.64Z"/>
    </g>
  </g>
  <g id="Capa_3" class="st0">
    <text class="st2" transform="translate(-19.99 484.13)"><tspan x="0" y="0">Emiliano Martinez Bautista</tspan></text>
  </g>
</svg>